:FULLY-SPECIFIED
:FORCE-ALL-JOINTS-BE-3DOF
:DEGREES
1325
root -1.5382 14.8501 6.94658 -8.76185 23.6739 1.81071
lfemur -3.82243 5.83944 -19.1361
ltibia 58.1252 0 0
lfoot -28.8735 24.2419 0.146512
ltoes -14.8989 0 0
rfemur -48.5039 -5.85719 3.63599
rtibia 41.3996 0 0
rfoot 22.0822 7.77246 -0.391066
rtoes 6.46743 0 0
lowerback 13.2548 0.376536 -10.6123
upperback -1.56832 -1.15635 1.00245
thorax -9.03643 0.0159783 7.33902
lowerneck -5.61314 -8.49068 -10.8662
upperneck 16.8064 -11.5746 7.22094
head 7.12502 -5.7229 3.15023
lclavicle 6.57453e-14 2.76872e-15 -2.90762e-31
lhumerus -29.6002 -49.8026 115.289
lradius 113.728 0 0
lwrist 37.3492 0 0
lhand -13.4931 47.9155 -0.0231604
lfingers 7.12502 0 0
lthumb 12.6184 77.5306 -0.0210161
rclavicle 6.57453e-14 2.76872e-15 -2.90762e-31
rhumerus 31.3388 24.2301 -60.7007
rradius 103.193 0 0
rwrist -30.3352 0 0
rhand -11.9887 -29.4764 0.060793
rfingers 7.12502 0 0
rthumb 14.0645 -58.8126 0.0572807
1326
root -1.554 14.8248 7.11666 -8.67425 23.6036 1.79889
lfemur -3.90233 5.86465 -19.0957
ltibia 57.99 0 0
lfoot -28.7313 24.2584 0.14115
ltoes -14.7986 0 0
rfemur -48.3652 -5.86044 3.71757
rtibia 41.5005 0 0
rfoot 21.885 7.67561 -0.360029
rtoes 6.2937 0 0
lowerback 13.2199 0.388214 -10.5695
upperback -1.58487 -1.13001 1.00117
thorax -9.03581 0.0268334 7.30862
lowerneck -5.5876 -8.48703 -10.8527
upperneck 16.7418 -11.5717 7.23154
head 7.10093 -5.7211 3.15364
lclavicle 6.54153e-14 2.72794e-15 -2.83459e-31
lhumerus -29.5036 -49.6921 115.11
lradius 113.623 0 0
lwrist 37.474 0 0
lhand -13.5235 47.8875 -0.0224398
lfingers 7.12502 0 0
lthumb 12.589 77.503 -0.0204692
rclavicle 6.54153e-14 2.72794e-15 -2.83459e-31
rhumerus 31.3883 24.2157 -60.5593
rradius 103.064 0 0
rwrist -30.1393 0 0
rhand -12.093 -29.4857 0.0639228
rfingers 7.12502 0 0
rthumb 13.9637 -58.8203 0.0603661
1327
root -1.56981 14.7994 7.28675 -8.57194 23.5176 1.78378
lfemur -4.00323 5.89644 -19.0496
ltibia 57.8336 0 0
lfoot -28.5627 24.2758 0.134524
ltoes -14.677 0 0
rfemur -48.1969 -5.86153 3.81478
rtibia 41.6159 0 0
rfoot 21.6544 7.55938 -0.323334
rtoes 6.088 0 0
lowerback 13.1785 0.40188 -10.5182
upperback -1.60438 -1.09891 1.00007
thorax -9.03486 0.0396025 7.27274
lowerneck -5.55852 -8.48182 -10.8364
upperneck 16.6667 -11.567 7.24365
head 7.07287 -5.71833 3.15748
lclavicle 6.50228e-14 2.68243e-15 -2.74002e-31
lhumerus -29.3765 -49.5679 114.895
lradius 113.501 0 0
lwrist 37.6188 0 0
lhand -13.5607 47.8551 -0.0215735
lfingers 7.12502 0 0
lthumb 12.5531 77.471 -0.01981
rclavicle 6.50228e-14 2.68243e-15 -2.74002e-31
rhumerus 31.437 24.2045 -60.4012
rradius 102.915 0 0
rwrist -29.9185 0 0
rhand -12.2107 -29.4961 0.0674727
rfingers 7.12502 0 0
rthumb 13.8501 -58.8289 0.0638747
1328
root -1.58561 14.7741 7.45683 -8.45407 23.4201 1.76664
lfemur -4.11645 5.93226 -18.9961
ltibia 57.6526 0 0
lfoot -28.3694 24.2966 0.126948
ltoes -14.5386 0 0
rfemur -48.0054 -5.86431 3.92602
rtibia 41.75 0 0
rfoot 21.3886 7.42644 -0.281967
rtoes 5.85198 0 0
lowerback 13.1311 0.417686 -10.4596
upperback -1.6268 -1.06318 0.998627
thorax -9.03388 0.0542887 7.23153
lowerneck -5.52468 -8.47621 -10.8178
upperneck 16.58 -11.5621 7.25771
head 7.04049 -5.7154 3.16197
lclavicle 6.45731e-14 2.62909e-15 -2.62969e-31
lhumerus -29.238 -49.4224 114.652
lradius 113.36 0 0
lwrist 37.7861 0 0
lhand -13.6029 47.8176 -0.0206185
lfingers 7.12502 0 0
lthumb 12.5123 77.4341 -0.0190904
rclavicle 6.45731e-14 2.62909e-15 -2.62969e-31
rhumerus 31.497 24.189 -60.2162
rradius 102.743 0 0
rwrist -29.6606 0 0
rhand -12.3482 -29.5083 0.0715728
rfingers 7.12502 0 0
rthumb 13.7174 -58.839 0.0679299
